<svg xmlns="http://www.w3.org/2000/svg" version="1.1" xmlns:xlink="http://www.w3.org/1999/xlink" xmlns:svgjs="http://svgjs.dev/svgjs" width="2000" height="161" viewBox="0 0 2000 161"><g transform="matrix(1,0,0,1,-1.2121212121212466,-1.4024287080119962)"><svg viewBox="0 0 396 32" data-background-color="#ffffff" preserveAspectRatio="xMidYMid meet" height="161" width="2000" xmlns="http://www.w3.org/2000/svg" xmlns:xlink="http://www.w3.org/1999/xlink"><g id="tight-bounds" transform="matrix(1,0,0,1,0.2400000000000091,0.27874359413902994)"><svg viewBox="0 0 395.52 31.442512811721926" height="31.442512811721926" width="395.52"><g><svg viewBox="0 0 449.45445932733844 35.730121348314604" height="31.442512811721926" width="395.52"><g><rect width="3.2061484743047193" height="35.730121348314604" x="42.33525201977528" y="0" fill="#5b91cf" opacity="1" stroke-width="0" stroke="transparent" fill-opacity="1" class="rect-yte-0" data-fill-palette-color="primary" rx="1%" id="yte-0" data-palette-color="#5b91cf"></rect></g><g transform="matrix(1,0,0,1,53.93445932733843,0.08888089887640405)"><svg viewBox="0 0 395.52 35.552359550561796" height="35.552359550561796" width="395.52"><g id="textblocktransform"><svg viewBox="0 0 395.52 35.552359550561796" height="35.552359550561796" width="395.52" id="textblock"><g><svg viewBox="0 0 395.52 35.552359550561796" height="35.552359550561796" width="395.52"><g transform="matrix(1,0,0,1,0,0)"><svg width="395.52" viewBox="3.56 -23.1 262.9 23.64" height="35.552359550561796" data-palette-color="#5b91cf"><path d="M15.21-23.1Q18.75-23.1 21.25-21.67 23.75-20.24 25.1-17.71 26.44-15.19 26.64-11.89L26.64-11.89Q26.64-11.06 26.28-10.72 25.93-10.38 25.1-10.38L25.1-10.38 7.42-10.38Q7.59-6.74 9.58-4.87 11.57-3 15.21-3L15.21-3Q17.46-3 19.65-3.58 21.85-4.15 23.51-5.1L23.51-5.1Q23.93-5.32 24.27-5.32L24.27-5.32Q25.12-5.32 25.66-4.03L25.66-4.03Q25.88-3.52 25.88-3.1L25.88-3.1Q25.88-2.12 24.8-1.59L24.8-1.59Q22.92-0.63 20.36-0.05 17.8 0.54 15.21 0.54L15.21 0.54Q11.52 0.54 8.91-0.88 6.3-2.29 4.93-4.96 3.56-7.62 3.56-11.28L3.56-11.28Q3.56-14.77 5.05-17.46 6.54-20.14 9.18-21.62 11.82-23.1 15.21-23.1L15.21-23.1ZM15.21-19.56Q12.21-19.56 10.24-18.03 8.28-16.5 7.67-13.79L7.67-13.79 22.58-13.79Q22.07-16.6 20.23-18.08 18.38-19.56 15.21-19.56L15.21-19.56ZM53.76-23.1Q54.76-23.1 55.17-22.73 55.59-22.36 55.59-21.51L55.59-21.51 55.59-14.43Q55.59-13.57 55.17-13.21 54.76-12.84 53.76-12.84L53.76-12.84Q52.76-12.84 52.34-13.21 51.93-13.57 51.93-14.43L51.93-14.43Q51.93-15.92 51.14-17.07 50.36-18.21 48.81-18.85 47.26-19.48 45.09-19.48L45.09-19.48Q42.75-19.48 40.89-18.43 39.04-17.38 37.99-15.5 36.94-13.62 36.94-11.28L36.94-11.28Q36.94-8.91 37.92-7.04 38.91-5.18 40.71-4.13 42.5-3.08 44.85-3.08L44.85-3.08Q47.09-3.08 49.2-3.77 51.32-4.47 53.05-5.79L53.05-5.79Q53.56-6.18 54-6.18L54-6.18Q54.71-6.18 55.32-5.18L55.32-5.18Q55.69-4.57 55.69-4L55.69-4Q55.69-3.15 54.9-2.59L54.9-2.59Q52.95-1.12 50.29-0.29 47.63 0.54 44.85 0.54L44.85 0.54Q41.35 0.54 38.68-1 36.01-2.54 34.54-5.22 33.08-7.91 33.08-11.28L33.08-11.28Q33.08-14.65 34.57-17.33 36.06-20.02 38.73-21.56 41.4-23.1 44.85-23.1L44.85-23.1Q47.02-23.1 48.84-22.3 50.66-21.51 51.93-20.04L51.93-20.04 51.93-21.51Q51.93-22.36 52.34-22.73 52.76-23.1 53.76-23.1L53.76-23.1ZM74.95-23.1Q78.29-23.1 80.98-21.58 83.66-20.07 85.19-17.37 86.71-14.67 86.71-11.28L86.71-11.28Q86.71-7.89 85.19-5.19 83.66-2.49 80.98-0.98 78.29 0.54 74.95 0.54L74.95 0.54Q71.6 0.54 68.92-0.98 66.23-2.49 64.7-5.19 63.18-7.89 63.18-11.28L63.18-11.28Q63.18-14.67 64.7-17.37 66.23-20.07 68.92-21.58 71.6-23.1 74.95-23.1L74.95-23.1ZM74.95-19.48Q72.58-19.48 70.78-18.44 68.99-17.41 68.01-15.54 67.04-13.67 67.04-11.28L67.04-11.28Q67.04-8.89 68.01-7.02 68.99-5.15 70.78-4.11 72.58-3.08 74.95-3.08L74.95-3.08Q77.31-3.08 79.11-4.11 80.9-5.15 81.88-7.02 82.86-8.89 82.86-11.28L82.86-11.28Q82.86-13.67 81.88-15.54 80.9-17.41 79.11-18.44 77.31-19.48 74.95-19.48L74.95-19.48ZM119.01-3.32Q119.84-3.32 120.2-2.94 120.55-2.56 120.55-1.66L120.55-1.66Q120.55-0.76 120.2-0.38 119.84 0 119.01 0L119.01 0 115.37 0Q114.54 0 114.19-0.38 113.84-0.76 113.84-1.66L113.84-1.66 113.84-16.11Q113.84-17.8 113.29-18.64 112.74-19.48 111.52-19.48L111.52-19.48Q110.37-19.48 109.39-18.42 108.42-17.36 107.84-15.47 107.27-13.57 107.27-11.16L107.27-11.16 107.27-3.32 108.66-3.32Q109.49-3.32 109.84-2.94 110.2-2.56 110.2-1.66L110.2-1.66Q110.2-0.76 109.84-0.38 109.49 0 108.66 0L108.66 0 105.14 0Q104.31 0 103.96-0.38 103.61-0.76 103.61-1.66L103.61-1.66 103.61-16.11Q103.61-17.8 103.06-18.64 102.51-19.48 101.29-19.48L101.29-19.48Q100.14-19.48 99.16-18.42 98.19-17.36 97.61-15.47 97.04-13.57 97.04-11.16L97.04-11.16 97.04-3.32 98.31-3.32Q99.14-3.32 99.49-2.94 99.85-2.56 99.85-1.66L99.85-1.66Q99.85-0.76 99.49-0.38 99.14 0 98.31 0L98.31 0 91.37 0Q90.54 0 90.19-0.38 89.84-0.76 89.84-1.66L89.84-1.66Q89.84-2.56 90.19-2.94 90.54-3.32 91.37-3.32L91.37-3.32 93.38-3.32 93.38-19.24 91.37-19.24Q90.54-19.24 90.19-19.62 89.84-20 89.84-20.9L89.84-20.9Q89.84-21.8 90.19-22.18 90.54-22.56 91.37-22.56L91.37-22.56 95.01-22.56Q95.84-22.56 96.2-22.18 96.55-21.8 96.55-20.9L96.55-20.9 96.55-18.48Q97.6-20.78 99.06-21.94 100.53-23.1 102.24-23.1L102.24-23.1Q103.9-23.1 105.14-21.97 106.39-20.85 106.83-18.68L106.83-18.68Q109-23.1 112.44-23.1L112.44-23.1Q113.88-23.1 115.02-22.38 116.15-21.66 116.83-20.18 117.5-18.7 117.5-16.55L117.5-16.55 117.5-3.32 119.01-3.32ZM148.99-3.32Q149.82-3.32 150.17-2.94 150.53-2.56 150.53-1.66L150.53-1.66Q150.53-0.76 150.17-0.38 149.82 0 148.99 0L148.99 0 145.35 0Q144.52 0 144.17-0.38 143.81-0.76 143.81-1.66L143.81-1.66 143.81-16.11Q143.81-17.8 143.26-18.64 142.71-19.48 141.49-19.48L141.49-19.48Q140.35-19.48 139.37-18.42 138.39-17.36 137.82-15.47 137.25-13.57 137.25-11.16L137.25-11.16 137.25-3.32 138.64-3.32Q139.47-3.32 139.82-2.94 140.18-2.56 140.18-1.66L140.18-1.66Q140.18-0.76 139.82-0.38 139.47 0 138.64 0L138.64 0 135.12 0Q134.29 0 133.94-0.38 133.58-0.76 133.58-1.66L133.58-1.66 133.58-16.11Q133.58-17.8 133.03-18.64 132.49-19.48 131.26-19.48L131.26-19.48Q130.12-19.48 129.14-18.42 128.16-17.36 127.59-15.47 127.02-13.57 127.02-11.16L127.02-11.16 127.02-3.32 128.29-3.32Q129.12-3.32 129.47-2.94 129.82-2.56 129.82-1.66L129.82-1.66Q129.82-0.76 129.47-0.38 129.12 0 128.29 0L128.29 0 121.35 0Q120.52 0 120.17-0.38 119.81-0.76 119.81-1.66L119.81-1.66Q119.81-2.56 120.17-2.94 120.52-3.32 121.35-3.32L121.35-3.32 123.35-3.32 123.35-19.24 121.35-19.24Q120.52-19.24 120.17-19.62 119.81-20 119.81-20.9L119.81-20.9Q119.81-21.8 120.17-22.18 120.52-22.56 121.35-22.56L121.35-22.56 124.99-22.56Q125.82-22.56 126.17-22.18 126.53-21.8 126.53-20.9L126.53-20.9 126.53-18.48Q127.58-20.78 129.04-21.94 130.51-23.1 132.22-23.1L132.22-23.1Q133.88-23.1 135.12-21.97 136.37-20.85 136.81-18.68L136.81-18.68Q138.98-23.1 142.42-23.1L142.42-23.1Q143.86-23.1 145-22.38 146.13-21.66 146.8-20.18 147.48-18.7 147.48-16.55L147.48-16.55 147.48-3.32 148.99-3.32ZM165.1-23.1Q168.64-23.1 171.14-21.67 173.64-20.24 174.99-17.71 176.33-15.19 176.53-11.89L176.53-11.89Q176.53-11.06 176.17-10.72 175.82-10.38 174.99-10.38L174.99-10.38 157.31-10.38Q157.48-6.74 159.47-4.87 161.46-3 165.1-3L165.1-3Q167.35-3 169.54-3.58 171.74-4.15 173.4-5.1L173.4-5.1Q173.82-5.32 174.16-5.32L174.16-5.32Q175.01-5.32 175.55-4.03L175.55-4.03Q175.77-3.52 175.77-3.1L175.77-3.1Q175.77-2.12 174.69-1.59L174.69-1.59Q172.81-0.63 170.25-0.05 167.69 0.54 165.1 0.54L165.1 0.54Q161.41 0.54 158.8-0.88 156.19-2.29 154.82-4.96 153.45-7.62 153.45-11.28L153.45-11.28Q153.45-14.77 154.94-17.46 156.43-20.14 159.07-21.62 161.71-23.1 165.1-23.1L165.1-23.1ZM165.1-19.56Q162.1-19.56 160.13-18.03 158.17-16.5 157.56-13.79L157.56-13.79 172.47-13.79Q171.96-16.6 170.12-18.08 168.27-19.56 165.1-19.56L165.1-19.56ZM202.33-23.1Q204.23-23.1 205.89-22.12L205.89-22.12Q206.87-21.53 206.87-20.61L206.87-20.61Q206.87-20.17 206.65-19.58L206.65-19.58Q206.14-18.19 205.23-18.19L205.23-18.19Q204.87-18.19 204.55-18.38L204.55-18.38Q203.35-19.04 201.99-19.04L201.99-19.04Q199.79-19.04 197.57-17.52 195.35-15.99 193.92-13.45 192.49-10.91 192.49-8.06L192.49-8.06 192.49-3.32 200.72-3.32Q201.55-3.32 201.9-2.94 202.26-2.56 202.26-1.66L202.26-1.66Q202.26-0.76 201.9-0.38 201.55 0 200.72 0L200.72 0 184.99 0Q184.16 0 183.81-0.38 183.46-0.76 183.46-1.66L183.46-1.66Q183.46-2.56 183.81-2.94 184.16-3.32 184.99-3.32L184.99-3.32 188.83-3.32 188.83-19.24 185.73-19.24Q184.9-19.24 184.54-19.62 184.19-20 184.19-20.9L184.19-20.9Q184.19-21.8 184.54-22.18 184.9-22.56 185.73-22.56L185.73-22.56 190.71-22.56Q191.54-22.56 191.89-22.18 192.25-21.8 192.25-20.9L192.25-20.9 192.25-15.97Q193.42-18.12 195.08-19.73 196.74-21.34 198.62-22.22 200.5-23.1 202.33-23.1L202.33-23.1ZM233.63-23.1Q234.63-23.1 235.04-22.73 235.46-22.36 235.46-21.51L235.46-21.51 235.46-14.43Q235.46-13.57 235.04-13.21 234.63-12.84 233.63-12.84L233.63-12.84Q232.62-12.84 232.21-13.21 231.79-13.57 231.79-14.43L231.79-14.43Q231.79-15.92 231.01-17.07 230.23-18.21 228.68-18.85 227.13-19.48 224.96-19.48L224.96-19.48Q222.61-19.48 220.76-18.43 218.9-17.38 217.85-15.5 216.8-13.62 216.8-11.28L216.8-11.28Q216.8-8.91 217.79-7.04 218.78-5.18 220.58-4.13 222.37-3.08 224.71-3.08L224.71-3.08Q226.96-3.08 229.07-3.77 231.18-4.47 232.92-5.79L232.92-5.79Q233.43-6.18 233.87-6.18L233.87-6.18Q234.58-6.18 235.19-5.18L235.19-5.18Q235.55-4.57 235.55-4L235.55-4Q235.55-3.15 234.77-2.59L234.77-2.59Q232.82-1.12 230.16-0.29 227.5 0.54 224.71 0.54L224.71 0.54Q221.22 0.54 218.55-1 215.88-2.54 214.41-5.22 212.95-7.91 212.95-11.28L212.95-11.28Q212.95-14.65 214.44-17.33 215.92-20.02 218.6-21.56 221.27-23.1 224.71-23.1L224.71-23.1Q226.89-23.1 228.71-22.3 230.52-21.51 231.79-20.04L231.79-20.04 231.79-21.51Q231.79-22.36 232.21-22.73 232.62-23.1 233.63-23.1L233.63-23.1ZM255.03-23.1Q258.57-23.1 261.08-21.67 263.58-20.24 264.92-17.71 266.26-15.19 266.46-11.89L266.46-11.89Q266.46-11.06 266.11-10.72 265.75-10.38 264.92-10.38L264.92-10.38 247.25-10.38Q247.42-6.74 249.41-4.87 251.4-3 255.03-3L255.03-3Q257.28-3 259.48-3.58 261.67-4.15 263.33-5.1L263.33-5.1Q263.75-5.32 264.09-5.32L264.09-5.32Q264.95-5.32 265.48-4.03L265.48-4.03Q265.7-3.52 265.7-3.1L265.7-3.1Q265.7-2.12 264.63-1.59L264.63-1.59Q262.75-0.63 260.19-0.05 257.62 0.54 255.03 0.54L255.03 0.54Q251.35 0.54 248.73-0.88 246.12-2.29 244.76-4.96 243.39-7.62 243.39-11.28L243.39-11.28Q243.39-14.77 244.88-17.46 246.37-20.14 249-21.62 251.64-23.1 255.03-23.1L255.03-23.1ZM255.03-19.56Q252.03-19.56 250.07-18.03 248.1-16.5 247.49-13.79L247.49-13.79 262.41-13.79Q261.89-16.6 260.05-18.08 258.21-19.56 255.03-19.56L255.03-19.56Z" opacity="1" transform="matrix(1,0,0,1,0,0)" fill="#5b91cf" class="wordmark-text-0" data-fill-palette-color="primary" id="text-0"></path></svg></g></svg></g></svg></g></svg></g><g transform="matrix(1,0,0,1,0,0.08888089887640405)"><svg viewBox="0 0 33.94219318651685 35.552359550561796" height="35.552359550561796" width="33.94219318651685"><g><svg version="1.0" xmlns="http://www.w3.org/2000/svg" xmlns:xlink="http://www.w3.org/1999/xlink" x="0" y="0" viewBox="0 0 95.471 100" enable-background="new 0 0 95.471 100" xml:space="preserve" id="icon-0" width="33.94219318651685" height="35.552359550561796" class="icon-icon-0" data-fill-palette-color="accent"><path d="M47.735 0C47.652 2.825 45.997 13.412 27.936 30.934 10.554 47.797 2.439 49.824 0 50 2.439 50.178 10.554 52.204 27.936 69.066 45.997 86.589 47.652 97.177 47.735 100 47.818 97.177 49.474 86.589 67.533 69.066 84.917 52.204 93.031 50.178 95.471 50 93.032 49.824 84.917 47.797 67.533 30.934 49.475 13.412 47.819 2.825 47.735 0" fill="#5b91cf" data-fill-palette-color="accent"></path></svg></g></svg></g></svg></g><defs></defs></svg><rect width="395.52" height="31.442512811721926" fill="none" stroke="none" visibility="hidden"></rect></g></svg></g></svg>